<?xml version="1.0" encoding="utf-8"?>
<!-- Generator: Adobe Illustrator 15.0.2, SVG Export Plug-In . SVG Version: 6.00 Build 0)  -->
<!DOCTYPE svg PUBLIC "-//W3C//DTD SVG 1.1//EN" "http://www.w3.org/Graphics/SVG/1.1/DTD/svg11.dtd">
<svg version="1.1" id="banner-772x250_xA0_Image_1_"
	 xmlns="http://www.w3.org/2000/svg" xmlns:xlink="http://www.w3.org/1999/xlink" x="0px" y="0px" width="256px" height="256px"
	 viewBox="0 0 256 256" enable-background="new 0 0 256 256" xml:space="preserve">
<path display="none" fill="#DD4814" d="M284,166c0,6.627-5.373,12-12,12H-15c-6.627,0-12-5.373-12-12V88c0-6.627,5.373-12,12-12h287
	c6.627,0,12,5.373,12,12V166z"/>
<path fill="#DD4814" d="M245,231c0,6.627-5.373,12-12,12H22c-6.627,0-12-5.373-12-12V20c0-6.627,5.373-12,12-12h211
	c6.627,0,12,5.373,12,12V231z"/>
<text transform="matrix(1 0 0 1 29 141)" fill="#FFFFFF" font-family="'Ubuntu-Medium'" font-size="48">WP cdnjs</text>
</svg>
